<svg xmlns="http://www.w3.org/2000/svg" xmlns:xlink="http://www.w3.org/1999/xlink" width="53" height="53" viewBox="0 0 53 53"><defs><style>.a,.d{fill:#67d0ff;}.b,.f{fill:none;}.b{stroke:#67d0ff;stroke-width:2px;}.c{clip-path:url(#a);}.d{fill-rule:evenodd;}.e{stroke:none;}</style><clipPath id="a"><rect class="a" width="32.579" height="31.775" transform="translate(0 0)"/></clipPath></defs><g transform="translate(-36 -850)"><g class="b" transform="translate(36 850)"><rect class="e" width="53" height="53" rx="11"/><rect class="f" x="1" y="1" width="51" height="51" rx="10"/></g><g transform="translate(46 861)"><g class="c"><path class="d" d="M16.289,0a16.291,16.291,0,0,0-5.148,31.747c.815.149,1.112-.354,1.112-.786,0-.386-.014-1.411-.022-2.77-4.531.984-5.487-2.184-5.487-2.184a4.309,4.309,0,0,0-1.809-2.382c-1.479-1.011.112-.991.112-.991a3.423,3.423,0,0,1,2.495,1.679,3.47,3.47,0,0,0,4.741,1.354,3.477,3.477,0,0,1,1.034-2.178C9.7,23.078,5.9,21.68,5.9,15.438a6.3,6.3,0,0,1,1.677-4.371,5.856,5.856,0,0,1,.159-4.311s1.368-.438,4.48,1.67a15.42,15.42,0,0,1,8.156,0c3.11-2.108,4.475-1.67,4.475-1.67a5.846,5.846,0,0,1,.162,4.311,6.287,6.287,0,0,1,1.675,4.371c0,6.258-3.809,7.635-7.438,8.038a3.888,3.888,0,0,1,1.106,3.017c0,2.177-.02,3.934-.02,4.468,0,.436.293.943,1.12.784A16.292,16.292,0,0,0,16.289,0"/></g></g></g></svg>