<svg xmlns="http://www.w3.org/2000/svg" xmlns:xlink="http://www.w3.org/1999/xlink" width="53" height="53" viewBox="0 0 53 53"><defs><style>.a{fill:#67d0ff;}.b,.e{fill:none;}.b{stroke:#67d0ff;stroke-width:2px;}.c{clip-path:url(#a);}.d{stroke:none;}</style><clipPath id="a"><rect class="a" width="27.985" height="28.317"/></clipPath></defs><g transform="translate(-36 -984)"><g class="b" transform="translate(36 984)"><rect class="d" width="53" height="53" rx="11"/><rect class="e" x="1" y="1" width="51" height="51" rx="10"/></g><g transform="translate(48 996.653)"><g class="c"><path class="a" d="M25.164,0H2.821A2.826,2.826,0,0,0,0,2.832V25.487a2.826,2.826,0,0,0,2.821,2.831H25.164a2.826,2.826,0,0,0,2.821-2.831V2.832A2.826,2.826,0,0,0,25.164,0M8.98,22.406H5.215V10.293H8.98ZM7.072,8.807a1.885,1.885,0,1,1,.049-3.765,1.886,1.886,0,1,1-.049,3.765m15.654,13.6H18.962V15.693c0-1.56-.545-2.626-1.908-2.626a2.068,2.068,0,0,0-1.932,1.412,2.714,2.714,0,0,0-.124.941v6.985H11.233V14.158c0-1.511-.049-2.774-.1-3.864H14.4l.174,1.684h.074a4.35,4.35,0,0,1,3.74-1.957c2.477,0,4.335,1.66,4.335,5.227Z" transform="translate(0 -0.001)"/></g></g></g></svg>