<svg xmlns="http://www.w3.org/2000/svg" width="54" height="53" viewBox="0 0 54 53"><defs><style>.a,.b{fill:none;}.a{stroke:#67d0ff;stroke-width:2px;}.c{fill:#67d0ff;}.d{stroke:none;}</style></defs><g transform="translate(-35 -917)"><g class="a" transform="translate(35 917)"><rect class="d" width="54" height="53" rx="11"/><rect class="b" x="1" y="1" width="52" height="51" rx="10"/></g><g transform="translate(42 924)"><rect class="b" width="40" height="40"/><path class="c" d="M82.873,118.792a14.515,14.515,0,0,0,14.614-14.614c0-.222,0-.444-.015-.664a10.45,10.45,0,0,0,2.563-2.659,10.252,10.252,0,0,1-2.95.808,5.154,5.154,0,0,0,2.258-2.841,10.293,10.293,0,0,1-3.262,1.247,5.141,5.141,0,0,0-8.753,4.684,14.582,14.582,0,0,1-10.586-5.366,5.14,5.14,0,0,0,1.59,6.856A5.1,5.1,0,0,1,76,105.6v.065a5.138,5.138,0,0,0,4.121,5.035,5.128,5.128,0,0,1-2.319.088,5.142,5.142,0,0,0,4.8,3.567,10.306,10.306,0,0,1-6.379,2.2A10.459,10.459,0,0,1,75,116.485a14.541,14.541,0,0,0,7.873,2.3" transform="translate(-67.49 -88.592)"/></g></g></svg>